<?xml version="1.0" standalone="no"?>
<!DOCTYPE svg PUBLIC "-//W3C//DTD SVG 20010904//EN"
 "http://www.w3.org/TR/2001/REC-SVG-20010904/DTD/svg10.dtd">
<svg version="1.0" xmlns="http://www.w3.org/2000/svg"
 width="1154.000000pt" height="1154.000000pt" viewBox="0 0 1154.000000 1154.000000"
 preserveAspectRatio="xMidYMid meet">

<g transform="translate(0.000000,1154.000000) scale(0.100000,-0.100000)"
fill="#000000" stroke="none">
<path d="M5435 11530 c-825 -57 -1562 -256 -2270 -615 -840 -425 -1540 -1028
-2100 -1809 -520 -724 -875 -1614 -1004 -2511 -43 -304 -55 -477 -55 -825 0
-417 27 -713 97 -1080 l22 -115 1788 -3 1787 -2 163 -248 c233 -353 765 -1155
1304 -1965 255 -384 466 -704 469 -711 6 -15 -56 -26 -142 -26 -117 0 -485
-62 -689 -115 -403 -107 -686 -270 -817 -470 l-39 -60 -687 -5 -687 -5 38 -23
38 -22 672 0 672 0 19 47 c26 64 132 173 234 240 114 76 296 155 487 212 191
57 551 115 855 136 80 6 98 5 109 -8 17 -22 10 -50 -14 -53 -34 -5 -109 -17
-125 -21 -8 -1 -58 -7 -110 -13 -109 -12 -185 -24 -325 -52 -157 -32 -171 -38
-78 -34 82 4 83 4 104 -25 11 -16 23 -28 27 -28 4 1 10 0 15 -1 14 -5 27 -8
42 -9 8 0 15 -7 15 -14 0 -16 62 -37 111 -38 21 0 -18 -14 -99 -34 -132 -33
-301 -105 -310 -132 -2 -7 14 -3 40 9 72 35 131 47 180 36 49 -11 75 -14 173
-23 39 -3 93 -11 120 -17 60 -13 132 -16 470 -17 143 -1 297 3 341 8 45 5 96
8 113 6 18 -2 29 0 26 5 -8 13 27 -1 43 -17 7 -7 19 -16 26 -20 8 -5 23 -24
35 -43 27 -45 27 -22 1 31 -26 50 -87 94 -188 136 -42 18 -68 33 -57 34 11 1
38 3 60 5 22 1 72 12 110 24 39 12 81 24 95 27 14 3 27 9 30 12 23 28 94 30
170 6 11 -4 20 -3 20 2 0 13 -119 55 -305 107 -124 34 -140 40 -155 51 -15 12
-48 22 -105 29 -16 3 -50 8 -75 11 -25 4 -60 8 -77 9 -35 1 -37 3 -24 25 10
16 95 8 361 -35 578 -92 968 -279 1086 -521 l26 -53 699 0 c693 0 698 0 734
21 20 12 34 23 32 25 -2 2 -322 4 -710 4 l-707 1 -44 67 c-179 277 -603 464
-1255 552 -79 11 -148 20 -153 20 -17 0 -3 25 114 204 92 140 1632 2460 1786
2688 l45 68 1691 2 1690 3 23 120 c30 153 68 438 84 625 17 187 17 713 0 900
-107 1235 -556 2325 -1347 3275 -132 158 -497 526 -654 658 -381 321 -760 571
-1175 777 -657 326 -1324 515 -2055 585 -199 19 -676 27 -855 15z m378 -680
c56 -21 114 -73 141 -127 19 -38 21 -194 6 -637 -5 -159 -9 -291 -7 -292 1 -2
65 -10 142 -19 188 -22 230 -41 266 -120 53 -115 -10 -278 -115 -298 -16 -2
-73 1 -125 9 -53 7 -167 18 -253 23 -180 10 -210 22 -252 94 -37 64 -43 104
-56 357 -6 129 -15 321 -20 425 -18 345 -16 434 7 480 28 53 72 93 119 110 54
19 85 18 147 -5z m-526 -31 c34 -13 90 -64 109 -102 18 -33 25 -116 60 -708
31 -505 30 -519 -29 -586 -87 -99 -224 -76 -286 47 -27 53 -27 49 -91 520 -17
124 -42 303 -56 398 -35 251 -32 285 32 361 56 67 181 100 261 70z m-522 -143
c80 -47 81 -50 156 -516 36 -224 40 -270 36 -375 -8 -222 -84 -380 -242 -501
-157 -121 -409 -182 -575 -140 -202 51 -331 163 -459 401 -24 44 -90 161 -146
260 -57 99 -106 196 -110 217 -18 98 66 225 179 267 107 40 217 18 270 -53 23
-31 95 -197 202 -465 66 -167 107 -221 183 -241 84 -22 181 8 239 74 29 33 62
117 62 157 0 20 -56 244 -123 489 -60 220 -58 208 -46 258 19 88 101 170 192
193 54 14 134 3 182 -25z m2142 -2 c81 -38 142 -126 143 -204 0 -20 -34 -159
-76 -310 -41 -151 -88 -322 -104 -380 -115 -419 -107 -396 -155 -448 -45 -51
-82 -66 -148 -60 -68 6 -108 33 -138 95 -33 69 -34 129 -4 318 27 170 35 222
53 345 64 417 86 538 103 572 21 42 80 86 131 99 50 12 137 0 195 -27z m1174
-473 c182 -87 492 -275 561 -339 171 -159 33 -385 -196 -321 -22 6 -72 32
-110 59 -76 50 -222 140 -229 140 -2 0 -21 -25 -41 -55 l-36 -55 23 -13 c236
-144 263 -169 281 -254 21 -96 -69 -206 -186 -228 -57 -11 -86 0 -214 80 -91
57 -122 71 -130 62 -6 -7 -45 -67 -88 -133 -42 -67 -89 -134 -104 -149 -42
-42 -95 -65 -152 -65 -62 0 -100 18 -137 67 -23 30 -28 48 -31 109 l-4 72 90
189 c374 782 391 815 447 846 67 36 167 31 256 -12z m-4906 -486 c264 -47 449
-265 473 -557 l7 -82 90 -21 c107 -25 146 -44 175 -86 67 -93 56 -221 -23
-269 -35 -22 -107 -26 -167 -11 -19 5 -58 12 -86 15 l-51 6 -27 -50 c-89 -163
-258 -310 -433 -375 -210 -79 -435 -70 -583 25 -256 165 -357 586 -217 910
114 264 368 458 652 499 86 12 101 12 190 -4z m6115 -104 c31 -22 55 -88 46
-124 -13 -55 -55 -82 -229 -151 -92 -36 -181 -66 -198 -66 -75 0 -125 60 -116
138 7 60 34 84 142 128 106 42 117 46 170 70 85 37 139 39 185 5z m-3030
-1102 c236 -27 475 -98 697 -206 159 -77 346 -198 453 -293 14 -12 49 -42 78
-67 45 -40 68 -76 45 -71 -12 2 -47 -14 -55 -26 -5 -7 -8 -7 -8 2 0 6 -7 12
-16 12 -11 0 -14 -5 -10 -16 5 -14 4 -15 -9 -4 -12 10 -15 10 -15 -1 0 -12 -2
-12 -9 0 -5 7 -14 10 -20 7 -6 -4 -11 0 -12 11 0 10 -3 13 -5 6 -5 -11 -16 -5
-58 32 -64 57 -295 205 -387 248 -126 58 -185 83 -274 112 -184 61 -338 91
-510 101 -60 4 -121 8 -135 9 -14 2 -32 3 -41 4 -43 3 -72 66 -53 116 17 43
118 50 344 24z m406 -1444 c58 -17 109 -63 135 -120 17 -38 19 -86 19 -801 l0
-762 -28 -53 c-20 -39 -41 -62 -77 -84 l-49 -30 -775 3 c-732 3 -777 5 -811
22 -48 25 -96 80 -110 127 -8 27 -10 269 -8 799 l3 760 28 42 c15 23 46 54 69
69 l41 28 381 5 c852 12 1129 11 1182 -5z m3931 -941 c21 -17 51 -55 66 -85
l29 -54 -6 -170 c-11 -335 -56 -566 -149 -758 -170 -353 -458 -504 -765 -401
-137 46 -247 133 -341 273 -127 187 -164 368 -135 671 7 80 13 185 13 233 1
127 37 194 124 235 50 23 93 28 757 72 85 6 173 12 195 13 22 2 70 3 107 2 59
-1 72 -5 105 -31z m-3144 -791 c-11 -33 -16 -37 -23 -17 -4 10 -2 22 4 26 18
13 26 9 19 -9z m-56 -20 c-11 -3 -16 -11 -13 -19 7 -19 -11 -27 -28 -12 -12
11 -11 15 8 25 11 7 28 12 36 11 10 0 9 -2 -3 -5z m-67 -28 c0 -2 -13 -11 -30
-20 -38 -19 -40 -11 -2 9 31 17 32 18 32 11z m10 -22 c0 -5 -12 -14 -28 -20
l-27 -13 24 20 c25 22 31 24 31 13z m-56 -62 c15 -16 15 -19 2 -24 -10 -4 -13
-1 -9 9 3 7 1 14 -5 14 -6 0 -12 -4 -14 -10 -2 -6 -8 -6 -18 0 -13 8 -12 10 3
10 9 0 17 5 17 10 0 14 5 13 24 -9z m36 -41 c0 -5 -4 -10 -10 -10 -5 0 -10 5
-10 10 0 6 5 10 10 10 6 0 10 -4 10 -10z m20 -22 c0 -16 -3 -19 -11 -11 -6 6
-8 16 -5 22 11 17 16 13 16 -11z m-130 -108 c0 -5 -2 -10 -4 -10 -3 0 -8 5
-11 10 -3 6 -1 10 4 10 6 0 11 -4 11 -10z m-480 -465 c0 -9 -102 -56 -214
-100 -218 -85 -409 -119 -661 -118 -186 1 -335 22 -500 69 -126 36 -345 128
-345 145 0 5 387 9 860 9 473 0 860 -2 860 -5z"/>
<path d="M2888 9280 c-70 -21 -148 -93 -189 -172 -31 -60 -38 -177 -14 -249
22 -65 97 -148 161 -178 58 -28 171 -29 231 -2 58 27 124 90 153 148 21 40 25
62 25 138 0 76 -4 99 -26 145 -55 118 -144 181 -253 179 -34 0 -73 -4 -88 -9z"/>
<path d="M5115 6982 c-80 -38 -75 14 -75 -839 0 -724 1 -759 19 -789 10 -17
35 -39 56 -48 35 -17 81 -18 789 -11 822 8 777 4 816 68 19 31 20 56 20 777 0
689 -1 748 -18 780 -36 71 6 67 -822 74 -718 7 -746 6 -785 -12z m1534 -825
c0 -365 -4 -669 -9 -677 -10 -16 -58 -16 -73 -1 -9 9 -12 91 -12 294 0 230 -3
287 -15 307 -11 19 -15 71 -18 220 -4 219 12 329 63 432 24 47 52 88 61 88 2
0 3 -298 3 -663z m-1489 482 c0 -118 4 -177 13 -192 10 -18 13 9 17 168 4 160
7 190 20 190 13 0 16 -29 20 -185 4 -156 7 -185 20 -185 13 0 15 29 18 188 2
150 5 187 16 187 23 0 26 -24 26 -201 0 -103 4 -169 10 -169 6 0 11 72 12 183
3 154 5 182 18 182 13 0 15 -30 18 -202 3 -226 -4 -260 -58 -291 -26 -15 -30
-23 -32 -62 -2 -54 -3 -31 12 -375 8 -173 9 -303 4 -340 l-9 -60 -35 0 c-35 0
-35 0 -44 59 -7 39 -6 166 2 365 17 419 18 392 -18 413 -53 30 -60 64 -60 293
0 176 2 205 15 205 13 0 15 -26 15 -171z m830 -109 c162 -35 273 -107 353
-228 113 -168 126 -363 37 -541 -106 -211 -338 -330 -557 -285 -116 24 -212
72 -288 144 -236 227 -213 605 49 804 63 48 114 71 208 95 83 22 134 25 198
11z"/>
<path d="M5757 6376 c-102 -42 -174 -114 -223 -222 -37 -80 -39 -209 -5 -297
63 -162 218 -263 386 -252 160 9 289 95 353 233 23 50 27 70 27 162 0 93 -3
111 -27 163 -34 73 -113 156 -180 190 -103 52 -237 61 -331 23z m276 -84 c25
-11 67 -41 92 -67 181 -180 88 -484 -164 -536 -92 -19 -204 18 -279 92 -104
103 -121 265 -41 391 38 58 86 95 163 125 74 28 158 26 229 -5z"/>
<path d="M9677 5590 c-17 -160 5 -257 78 -338 60 -67 116 -92 202 -92 178 0
306 153 328 392 l7 75 -99 6 c-54 4 -191 10 -304 13 l-206 7 -6 -63z"/>
<path d="M4398 1493 c41 -5 37 -24 -9 -41 -32 -12 -32 -12 -4 -7 17 3 71 16
120 29 l90 24 -115 0 c-63 -1 -100 -3 -82 -5z"/>
</g>
</svg>
